<svg xmlns="http://www.w3.org/2000/svg" viewBox="0 0 743.0284 104" width="743.0284" height="104" role="img" aria-label="Astra Voice"><g transform="translate(0,0)"><g transform="translate(0,0) scale(1.7893)"><circle cx="8.1233" cy="12.8619" r="6.7694" fill="currentColor"/><circle cx="41.4966" cy="12.8619" r="9.3418" fill="currentColor"/><circle cx="69.7928" cy="12.8619" r="12.8619" fill="currentColor"/><rect x="0" y="38.1238" width="100" height="20" rx="10" fill="currentColor"/></g><path transform="translate(209.4284,-112)" d="M 46.5,180.8 H 18.1 L 11.3,200 H 1.5 L 27,130 h 11 l 25.5,70 H 53.3 Z m -25.3,-8.6 h 22.2 l -5.9,-16.8 -5.1,-14.9 -5.2,14.9 z M 91.499939,200.8 q -9.7,0 -14.5,-4.3 -4.7,-4.3 -5.5,-12 h 9.4 q 0.4,2.2 1,3.8 0.7,1.6 1.9,2.6 1.2,1 3.1,1.5 1.9,0.4 4.6,0.4 6.1,0 8.3,-1.7 2.300001,-1.8 2.300001,-5.1 0,-3 -2.200001,-4.5 -2.2,-1.6 -5.5,-2.5 -3.3,-0.9 -7.1,-1.6 -3.8,-0.8 -7.1,-2.3 -3.3,-1.5 -5.5,-4.1 -2.2,-2.7 -2.2,-7.5 0,-3.1 1.1,-5.7 1.2,-2.6 3.5,-4.5 2.4,-1.9 6,-3 3.6,-1.1 8.4,-1.1 9.000001,0 13.600001,4.2 4.6,4.1 5.4,11.1 h -9.4 q -0.8,-3.7 -2.800001,-5.5 -2,-1.8 -6.8,-1.8 -5.4,0 -7.5,1.7 -2.1,1.7 -2.1,4.6 0,2.7 2.2,4 2.2,1.2 5.5,2 3.3,0.8 7.1,1.6 3.800001,0.7 7.100001,2.3 3.3,1.6 5.5,4.6 2.2,2.9 2.2,8 0,6.5 -4.8,10.7 -4.8,4.1 -15.200001,4.1 z M 120.49992,150 h 9 v -14 h 9 v 14 h 13 v 8.2 h -13 v 26.1 q 0,7.5 7,7.5 h 7 v 8.2 h -8.3 q -7.1,0 -10.9,-3.8 -3.8,-3.8 -3.8,-10.9 v -27.1 h -9 z M 165.49997,150 h 7 l 0.9,6.8 q 2.6,-3.7 6.6,-5.6 4,-2 9,-2 h 5 v 8.6 h -5 q -6.9,0 -10.6,3.4 -3.7,3.4 -3.9,8.8 v 30 h -9 z M 218.99989,200.8 q -7.8,0 -11.9,-3.9 -4.1,-4 -4.1,-10.9 0,-3.8 1.2,-6.8 1.2,-3.1 3.8,-5.2 2.7,-2.1 6.8,-3.2 4.2,-1.1 10.2,-1.1 h 10 V 166 q 0,-4.2 -2.5,-6.5 -2.4,-2.3 -7.5,-2.3 -5.1,0 -7.4,1.9 -2.2,1.9 -2.6,4.9 h -10 q 0.4,-6.4 5.2,-10.6 4.9,-4.2 14.8,-4.2 9.4,0 14.2,4.5 4.8,4.5 4.8,12.3 v 34 h -7 l -1.1,-8.2 q -2.7,4.3 -7.1,6.7 -4.3,2.3 -9.8,2.3 z m 1,-8 q 3.3,0 6,-1.1 2.8,-1.1 4.8,-2.9 2,-1.9 3.1,-4.4 1.1,-2.5 1.1,-5.3 v -1.8 h -10 q -6.9,0 -9.8,2.4 -2.8,2.3 -2.8,6.1 0,3.2 2,5.1 2,1.9 5.6,1.9 z M 283.99994,130 h 10.4 l 21.6,58.5 20,-58.5 h 10 l -24.5,70 h -11 z M 371.49994,200.8 q -5.3,0 -9.6,-1.6 -4.2,-1.7 -7.2,-4.7 -3,-3.1 -4.6,-7.5 -1.6,-4.5 -1.6,-10.1 v -3.8 q 0,-5.5 1.6,-9.9 1.7,-4.5 4.7,-7.6 3,-3.1 7.2,-4.7 4.3,-1.7 9.5,-1.7 5.2,0 9.4,1.7 4.3,1.6 7.3,4.7 3,3 4.6,7.5 1.7,4.4 1.7,10 v 3.8 q 0,5.6 -1.7,10 -1.6,4.4 -4.6,7.5 -3,3.1 -7.3,4.8 -4.2,1.6 -9.4,1.6 z m 0,-8.6 q 6.3,0 9.9,-3.8 3.7,-3.9 3.7,-11.5 v -3.8 q 0,-7.5 -3.7,-11.4 -3.6,-3.9 -9.9,-3.9 -6.3,0 -10,3.9 -3.6,3.8 -3.6,11.4 v 3.8 q 0,7.5 3.6,11.4 3.7,3.9 10,3.9 z M 410.29988,150 h 9 v 50 h -9 z m 4.5,-7.6 q -2.6,0 -4.3,-1.7 -1.7,-1.7 -1.7,-4.3 0,-2.6 1.7,-4.3 1.7,-1.7 4.3,-1.7 2.6,0 4.3,1.7 1.7,1.7 1.7,4.3 0,2.6 -1.7,4.3 -1.7,1.7 -4.3,1.7 z M 457.59991,200.8 q -10.4,0 -16.5,-6.2 -6,-6.2 -6,-17.7 v -3.8 q 0,-5.7 1.6,-10.1 1.6,-4.4 4.5,-7.5 2.9,-3.1 7.1,-4.7 4.2,-1.6 9.3,-1.6 4.4,0 7.8,1.2 3.5,1.2 6,3.3 2.6,2 4.2,4.8 1.7,2.8 2.5,6 h -9.6 q -1.1,-2.6 -3.8,-4.6 -2.6,-2.1 -7.6,-2.1 -5.7,0 -9.2,3.8 -3.4,3.8 -3.4,11.5 v 3.8 q 0,7.6 3.5,11.5 3.5,3.8 9.1,3.8 5.1,0 7.7,-2.1 2.6,-2.1 3.7,-5.6 h 9.6 q -1.5,7.2 -6.6,11.8 -5.1,4.5 -13.9,4.5 z M 511.09985,200.8 q -5,0 -9.2,-1.6 -4.1,-1.7 -7.1,-4.8 -2.9,-3.1 -4.6,-7.5 -1.6,-4.4 -1.6,-10 v -3.8 q 0,-5.5 1.6,-9.9 1.7,-4.4 4.7,-7.5 3,-3.1 7.1,-4.8 4.1,-1.7 9.1,-1.7 5,0 9.1,1.7 4.2,1.6 7.1,4.7 3,3.1 4.6,7.6 1.7,4.4 1.7,9.9 v 4.8 h -35.6 q 0.2,7.3 3.8,11 3.6,3.7 9.3,3.7 5.9,0 8.6,-2.1 2.7,-2.1 4.2,-6 h 9.2 q -1.5,7.4 -6.7,11.9 -5.2,4.4 -15.3,4.4 z m 0,-43.4 q -5.4,0 -8.9,3.2 -3.4,3.1 -4.1,9.5 h 25.9 q -0.6,-6.6 -3.9,-9.6 -3.3,-3.1 -9,-3.1 z" fill="currentColor"/></g></svg>
